<svg xmlns="http://www.w3.org/2000/svg" width="16" height="16" viewBox="0 0 16 16">
    <g fill="none" fill-rule="evenodd">
        <g fill="#41403F" fill-rule="nonzero">
            <g>
                <path d="M1.07 0L0.928 0 0 0.928 0 1.07 6.878 7.947 0 14.826 0 14.967 0.928 15.895 1.07 15.895 7.947 9.017 14.826 15.895 14.967 15.895 15.895 14.967 15.895 14.826 9.017 7.947 15.895 1.07 15.895 0.928 14.967 0 14.826 0 7.947 6.878z" transform="translate(-335 -1027) translate(335 1027)"/>
                <path d="M14.896 0.212L15.683 0.999 8.805 7.877 8.805 8.018 15.683 14.896 14.896 15.683 8.018 8.805 7.877 8.805 0.999 15.683 0.212 14.896 7.09 8.018 7.09 7.877 0.212 0.999 0.999 0.212 7.877 7.09 8.018 7.09z" transform="translate(-335 -1027) translate(335 1027)"/>
            </g>
        </g>
    </g>
</svg>
